<?xml version="1.0" encoding="UTF-8"?>
<svg id="Layer_1" data-name="Layer 1" xmlns="http://www.w3.org/2000/svg" viewBox="0 0 15563.06 2731.06">
  <defs>
    <style>
      .cls-1 {
        fill: #d7bfae;
      }

      .cls-2 {
        fill: #4b3c2c;
      }
    </style>
  </defs>
  <g>
    <path class="cls-2" d="M0,2712.71V18.35h75.94v2618.41h1692.8v75.94H0Z"/>
    <path class="cls-2" d="M1947.99,2712.71V18.35h75.94v2694.35h-75.94Z"/>
    <path class="cls-2" d="M3603.08,2731.06c-187.27,0-358.7-39.17-514.31-117.58-155.61-78.35-289.7-183.31-402.29-314.83-112.65-131.46-199.94-278.12-261.94-439.98-62-161.86-92.97-326.24-92.97-493.15s29.71-343.22,89.19-506.34,144.25-309.15,254.32-438.14c110.07-128.94,239.75-231.37,389.05-307.26C3213.4,37.97,3377.9,0,3557.54,0c278.35,0,497.85,55.06,658.56,165.13,160.65,110.07,284.03,251.1,370.06,423.17l-72.1,22.77c-101.23-189.73-233.44-326.36-396.67-409.87-163.24-83.51-349.81-125.27-559.85-125.27-177.12,0-336.56,36.71-478.23,110.01-141.73,73.36-262.58,171.95-362.49,295.84-99.97,123.89-176.54,262.35-229.65,415.31-53.11,153.03-79.67,309.15-79.67,468.43,0,169.43,30.97,331.29,92.97,485.52,62,154.23,147.4,292.06,256.21,413.42,108.8,121.37,235.33,216.86,379.58,286.38,144.19,69.52,299.8,104.27,466.82,104.27,187.21,0,364.38-44.91,531.4-134.73,167.02-89.82,328.94-233.38,485.86-430.8v106.28c-288.5,356.81-627.59,535.19-1017.27,535.19ZM4574.74,1505.02h-633.84v-75.88h709.78v1283.57h-75.94v-1207.69Z"/>
    <path class="cls-2" d="M5084.44,166.33v2546.38h-75.94V18.35h56.95l2061.03,2584.29V18.35h75.88v2694.35h-87.3L5084.44,166.33Z"/>
  </g>
  <g>
    <path class="cls-2" d="M10327.39,18.35l1134.9,2599.49L12593.35,18.35h83.51l-1172.81,2694.35h-83.51L10247.66,18.35h79.72Z"/>
    <path class="cls-2" d="M12875.22,2712.71V18.35h75.94v2694.35h-75.94Z"/>
    <path class="cls-2" d="M14321.7,18.35h68.37l1172.99,2694.35h-83.57l-418.64-962.95h-1412.28l-420.13,962.95h-83.51L14321.7,18.35ZM15027.81,1673.88l-671.93-1545.4-674.22,1545.4h1346.14Z"/>
  </g>
  <g>
    <path class="cls-1" d="M8897.28,1220.26c-81.01,0-146.91,65.91-146.91,146.91s65.91,146.91,146.91,146.91,146.92-65.91,146.92-146.91c0-81-65.9-146.91-146.92-146.91ZM8897.28,1434.06c-36.88,0-66.89-30.01-66.89-66.89s30.01-66.89,66.89-66.89,66.89,30.01,66.89,66.89-30.01,66.89-66.89,66.89Z"/>
    <path class="cls-1" d="M8897.28,1022.98c-189.79,0-344.2,154.41-344.2,344.2s154.41,344.2,344.2,344.2,344.2-154.41,344.2-344.2-154.41-344.2-344.2-344.2ZM8897.28,1631.35c-145.67,0-264.18-118.51-264.18-264.18s118.51-264.18,264.18-264.18,264.18,118.51,264.18,264.18-118.51,264.18-264.18,264.18Z"/>
    <path class="cls-1" d="M8897.28,828.89c-296.81,0-538.29,241.48-538.29,538.29s241.48,538.29,538.29,538.29,538.29-241.48,538.29-538.29-241.47-538.29-538.29-538.29ZM8897.28,1825.44c-252.68,0-458.27-205.58-458.27-458.26s205.58-458.27,458.27-458.27,458.27,205.58,458.27,458.27-205.58,458.26-458.27,458.26Z"/>
    <path class="cls-1" d="M8897.28,636.31c-403,0-730.86,327.86-730.86,730.86s327.86,730.86,730.86,730.86,730.86-327.86,730.86-730.86-327.86-730.86-730.86-730.86ZM8897.28,2018.01c-358.88,0-650.84-291.97-650.84-650.84s291.97-650.84,650.84-650.84,650.84,291.97,650.84,650.84-291.97,650.84-650.84,650.84Z"/>
    <path class="cls-1" d="M8897.28,440.63c-510.9,0-926.55,415.65-926.55,926.56s415.64,926.55,926.55,926.55,926.56-415.64,926.56-926.56-415.65-926.55-926.56-926.55ZM8897.28,2213.71c-466.78,0-846.52-379.75-846.52-846.53s379.75-846.52,846.52-846.52,846.53,379.75,846.53,846.53-379.75,846.52-846.53,846.52Z"/>
    <path class="cls-1" d="M8897.28,269.96c-605.01,0-1097.22,492.21-1097.22,1097.22s492.21,1097.22,1097.22,1097.22,1097.22-492.21,1097.22-1097.22c0-605.01-492.21-1097.22-1097.22-1097.22ZM8897.28,2384.37c-560.89,0-1017.19-456.31-1017.19-1017.19s456.31-1017.2,1017.19-1017.2,1017.19,456.32,1017.19,1017.2-456.31,1017.2-1017.19,1017.2Z"/>
    <path class="cls-1" d="M10218.45,1424.51c-9.5-20.17-21.31-45.27-21.31-57.33,0-76.4-6.68-152.98-19.87-227.61-3.37-19.1.38-35.45,4.72-54.37,5.97-26.01,13.4-58.37.47-98.13-5.86-18.02-11.75-37.26-17.99-57.64-22.47-73.42-47.94-156.61-83.85-218.94-18-31.24-52.42-54.26-85.72-76.51-22.35-14.94-45.45-30.38-55.12-43.33-10-13.4-21.45-46.95-31.56-76.55-15.93-46.67-30.98-90.76-55.38-116.49-40.11-42.3-83.46-82.28-128.82-118.81-41.04-33.05-86.23-35.31-126.1-37.31-29.25-1.46-54.51-2.73-76.77-14.93-64.1-35.14-131.6-65-200.6-88.75-19.69-6.77-45.93-25.38-71.31-43.38-38.2-27.08-77.7-55.09-118.83-62.94-80.19-15.3-162.62-23.06-244.98-23.06-65.94,0-122.74,26.58-177.66,52.28-34.72,16.25-67.52,31.59-100.31,39.05-24,5.46-54.73,3.79-87.25,2.02-46.23-2.52-94.03-5.14-136.21,11.92-60.1,24.3-118.91,53.41-174.81,86.54-36.28,21.5-58.58,57.77-80.14,92.84-14.91,24.25-28.99,47.16-44.83,59.87-22.4,17.98-52.76,30.42-84.9,43.59-46.58,19.09-94.75,38.83-129.48,79.28-45.8,53.35-87.54,110.78-124.08,170.71-30.24,49.62-40.46,114.09-50.33,176.43-6.37,40.2-12.38,78.16-23.1,108.29-20.53,57.69-37.09,117.41-49.22,177.48-9.2,45.58-16.01,92.24-20.25,138.67-3.62,39.56-5.45,79.86-5.45,119.79,0,29.21-9.69,64.15-19.96,101.16-14.48,52.18-29.44,106.14-20.19,156.53,8.77,47.75,20.35,95.5,34.45,141.92,13.98,46.05,30.73,91.81,49.78,136,16.31,37.83,51.62,62.06,85.77,85.5,22.22,15.26,45.2,31.02,54,45.72,20.39,34.04,42.62,67.58,66.08,99.66,26.52,36.28,55.27,71.59,85.43,104.96,12.33,13.64,26.49,39.61,40.18,64.72,20.28,37.19,41.25,75.65,68.12,98.93,45.18,39.15,93.47,75.49,143.53,108.01,33.4,21.7,68.45,21.57,96.58,21.43,20.1-.04,37.45-.15,51.81,6.78,22.91,11.05,48.77,34.03,76.13,58.36,39.83,35.4,81.02,71.99,128.15,85.54,43.03,12.37,80.94,14.65,117.6,16.86,19.67,1.19,40.03,2.41,61.69,5.18,5.55.71,11.09,1.03,16.64,1.03,31.99,0,63.91-10.84,94.93-21.37,24.73-8.39,50.3-17.07,69.12-17.07,31.6,0,66.13,8.64,102.7,17.8,52.53,13.15,106.85,26.76,160.52,16.13,55.94-11.04,110.51-32.98,163.3-54.18,16.54-6.64,32.16-12.92,47.56-18.76,36.2-13.72,64.08-43.28,88.67-69.37,17.67-18.75,34.36-36.45,50.44-45.06,60.43-32.39,118.79-69.91,173.46-111.53,14.42-10.98,40.8-18.71,66.32-26.18,38.4-11.24,78.11-22.88,106.16-50.66,51-50.52,98.13-105.61,140.07-163.74,22.01-30.51,25.04-69.9,27.7-104.65,1.79-23.39,3.65-47.57,10.92-60.7,31.77-57.35,59.37-117.57,82.03-178.99,6.41-17.37,23.75-34.43,42.11-52.51,26.61-26.19,56.77-55.88,65.98-98.91,9.81-45.81,17.21-92.73,22.01-139.47,3.41-33.32-12.96-68.1-28.79-101.73ZM10167.63,1518.09c-4.5,43.86-11.44,87.9-20.64,130.87-4.19,19.58-23.46,38.55-43.87,58.63-22.71,22.35-48.45,47.69-61.05,81.83-21.26,57.62-47.15,114.12-76.96,167.93-15.73,28.4-18.26,61.42-20.71,93.36-1.95,25.41-3.97,51.69-12.81,63.94-39.37,54.57-83.61,106.29-131.49,153.72-13.66,13.53-43.49,22.27-72.34,30.72-32.5,9.52-66.1,19.36-92.3,39.3-51.32,39.06-106.09,74.28-162.79,104.67-27.56,14.77-49.57,38.12-70.87,60.7-19.58,20.77-39.83,42.24-58.8,49.43-16.15,6.12-32.87,12.84-49.04,19.34-49.35,19.83-100.39,40.33-148.96,49.93-36.12,7.11-79.57-3.75-125.59-15.26-39.67-9.93-80.67-20.19-122.13-20.19-32.03,0-63.96,10.84-94.84,21.32-27.78,9.43-56.5,19.2-75.69,16.73-24.33-3.11-46.04-4.42-67.04-5.69-35.28-2.12-65.76-3.96-100.31-13.89-29.66-8.52-63.93-38.99-97.08-68.45-30.26-26.89-61.56-54.7-94.52-70.61-28.37-13.69-56.74-14.74-80.44-14.74-2.2,0-4.36.01-6.48.02-24.38.04-39.93-.26-52.65-8.52-46.99-30.53-92.32-64.64-134.73-101.39-15.93-13.81-34.17-47.25-50.26-76.77-16.66-30.55-32.39-59.4-51.08-80.08-28.32-31.33-55.3-64.47-80.2-98.53-22.02-30.12-42.89-61.58-62.02-93.53-17.78-29.69-48.08-50.49-77.38-70.59-24.78-17.01-50.41-34.59-57.57-51.2-17.87-41.46-33.58-84.38-46.69-127.57-13.22-43.54-24.09-88.33-32.31-133.12-5.93-32.29,6.54-77.23,18.59-120.69,11.25-40.53,22.88-82.45,22.88-122.55,0-37.51,1.72-75.36,5.11-112.51,3.99-43.58,10.38-87.36,19.01-130.13,11.37-56.35,26.9-112.36,46.16-166.47,13.21-37.11,20.09-80.57,26.75-122.59,8.66-54.67,17.61-111.2,39.62-147.3,34.29-56.25,73.47-110.16,116.46-160.23,22.18-25.84,59.55-41.15,99.11-57.36,36-14.75,73.22-30.01,104.64-55.24,26.66-21.39,45.09-51.38,62.92-80.36,16.47-26.79,33.5-54.48,52.77-65.91,52.44-31.07,107.62-58.4,164-81.19,25.63-10.36,64.39-8.26,101.86-6.21,36.59,2,74.45,4.07,109.38-3.89,41.16-9.37,79.44-27.28,116.45-44.6,49.18-23,95.62-44.73,143.77-44.73,77.34,0,154.72,7.28,229.99,21.65,24.04,4.58,57.78,28.5,87.54,49.61,29.99,21.26,61,43.25,91.55,53.77,64.73,22.28,128.05,50.3,188.19,83.26,38.36,21.02,77.07,22.97,111.23,24.68,36.65,1.83,60.11,3.77,79.92,19.72,42.59,34.29,83.28,71.82,120.93,111.53,12.38,13.05,27.03,55.96,37.72,87.29,13.18,38.6,25.63,75.06,43.14,98.55,17.89,23.98,46.81,43.32,74.78,62.01,24.46,16.35,52.18,34.88,60.86,49.93,31.38,54.47,55.44,133.06,76.66,202.4,6.34,20.72,12.33,40.29,18.41,58.97,6.08,18.69,2.54,34.12-2.37,55.47-5.22,22.77-11.73,51.1-5.53,86.19,12.37,70.05,18.65,141.95,18.65,213.69,0,29.95,14.7,61.19,28.92,91.41,9.05,19.24,22.73,48.31,21.58,59.51Z"/>
  </g>
</svg>